# xmcd
#
# Track frame offsets:
#	150
#	18982
#	34842
#	52040
#	69419
#	84636
#	98713
#	113700
#	131735
#	139964
#	147424
#	167490
#
# Disc length: 2451 seconds
#
# Revision: 0
# Processed by: cddbd v1.5.2PL0 Copyright (c) Steve Scherf et al.
# Submitted via: SynApp - FreeCDDB Version: 2.4
#
DISCID=a709910c
DTITLE=Fogerty, John - Fogerty, John - Revival
DYEAR=2007
DGENRE=Country
TTITLE0=Don't you wish it was true
TTITLE1=Gunslinger
TTITLE2=Creedence Song
TTITLE3=Broken down cowboy
TTITLE4=River is waiting
TTITLE5=Long dark night
TTITLE6=Summer of love
TTITLE7=Natural thing
TTITLE8=It ain't right
TTITLE9=I can't take it no more
TTITLE10=Somebody help me
TTITLE11=Longshot
EXTD=
EXTT0=
EXTT1=
EXTT2=
EXTT3=
EXTT4=
EXTT5=
EXTT6=
EXTT7=
EXTT8=
EXTT9=
EXTT10=
EXTT11=
PLAYORDER=
